<?xml version="1.0" encoding="UTF-8"?>
<!DOCTYPE svg PUBLIC "-//W3C//DTD SVG 1.1//EN" "http://www.w3.org/Graphics/SVG/1.1/DTD/svg11.dtd">
<!-- Creator: CorelDRAW -->
<svg xmlns="http://www.w3.org/2000/svg" xml:space="preserve" width="125.724mm" height="29.1941mm" version="1.1" style="shape-rendering:geometricPrecision; text-rendering:geometricPrecision; image-rendering:optimizeQuality; fill-rule:evenodd; clip-rule:evenodd"
viewBox="0 0 1429.74 332"
 xmlns:xlink="http://www.w3.org/1999/xlink"
 xmlns:xodm="http://www.corel.com/coreldraw/odm/2003">
 <defs>
  <style type="text/css">
   <![CDATA[
    .fil2 {fill:#333333}
    .fil1 {fill:#5067E6}
    .fil0 {fill:#E67A55}
   ]]>
  </style>
 </defs>
 <g id="Layer_x0020_1">
  <metadata id="CorelCorpID_0Corel-Layer"/>
  <path class="fil0" d="M91.29 166.48c16.99,-2.37 100.34,-25.97 94.62,-55.23 -14.38,-73.54 -149.29,-71.16 -174,0.07 -22.83,65.81 -16.53,159.52 51.6,196.29 29.92,16.15 61.05,-12.83 58.69,-49.19 -2.78,-42.74 -40.43,-76.82 -30.9,-91.94z"/>
  <path class="fil1" d="M436.27 137.41c-17.13,0.93 -103.46,-6.23 -103.46,-36.04 0,-74.93 132.86,-98.49 170.78,-33.33 35.04,60.21 46.84,153.38 -12.96,202.54 -26.26,21.59 -62.38,-0.87 -67.03,-37.01 -5.47,-42.48 24.93,-83.15 12.68,-96.16z"/>
  <g id="_2687463194736">
   <path class="fil2" d="M608.81 253.15c0,-8.1 -0.2,-9.26 1.46,-17.65 0.96,-4.84 6.83,-27.02 12.53,-27.02 1.38,0 2.83,1.58 5.11,2.69 5.24,2.55 6.99,11.19 6.99,17.22 0,12.92 -5.56,26.24 -13.18,36.33 -5.72,7.58 -12.92,-3.2 -12.92,-11.57zm-373.72 -40.36c0,-13.21 1.22,-24.05 3.38,-35.63 1.97,-10.54 4.57,-20.37 7.68,-29.72 5.29,-15.88 12.14,-30.48 20.9,-44.48l3.82 -5.6 1.92 6.15c0.66,1.97 1.31,4.3 1.91,6.43l7.69 29.71c0.31,1.24 0.45,2.25 0.75,3.55 0.55,2.4 0.97,4.47 1.47,6.87 6.24,30.12 15.18,84.09 -6.24,112.99 -5.24,7.07 -13.54,11.06 -22.19,5.85 -4.25,-2.57 -8.09,-7.12 -10.65,-11.41 -7.52,-12.56 -10.44,-29.6 -10.44,-44.71zm235.7 -5.11c0,-25.93 2.12,-42.88 8.82,-67.32 4.11,-14.97 6.2,-21.09 11.19,-35.09 0.5,-1.4 1.95,-4.51 2.05,-5.75 1.08,0.29 3.2,4.13 3.82,5.06l6.76 11c6.59,11.84 9.21,18.35 14.18,30.76 2.8,6.99 6.26,20.4 7.73,28.05 5.22,27.18 6.69,59.66 -9.29,83.12 -2.24,3.28 -4.96,6.09 -8.28,8.4 -5.75,3.99 -11.26,3.99 -17.29,0.38 -2.54,-1.52 -4.37,-2.84 -6.3,-5 -1.78,-2 -3.02,-4.34 -4.4,-6.64 -6.96,-11.62 -8.99,-34.08 -8.99,-46.97zm16.41 -147.44l-9.61 -8.96c-3.33,-2.78 -6.58,-5.88 -10.07,-8.49 -7.11,-5.32 -14.46,-10.69 -22.47,-14.66 -10.68,-5.29 -15.02,-7.07 -26.36,-10.77 -9.72,-3.18 -22.03,-4.74 -32.66,-4.74 -8.88,0 -17.68,0.64 -26.48,2.31 -15.84,3 -29.11,7.48 -43.38,14.74 -9.38,4.77 -18.11,10.7 -26.28,17.31 -3.56,2.89 -7.11,5.79 -10.34,9.03 -0.85,0.85 -1.53,1.71 -2.49,2.35 -0.98,-4.19 -8.17,-14.77 -10.91,-18.41 -3.44,-4.56 -10.25,-11.72 -17.88,-11.72 -7.98,0 -11.16,1.22 -17.54,5.06l-5.66 4.03 -8.35 7.79 -6.08 7.11c-5.14,6.34 -15.28,20.59 -18.6,26.87l-17.46 -2.18c-6.89,-0.67 -14.67,-1.05 -22.09,-1.05 -9.08,0 -16.19,0.93 -25.02,1.88 -5.81,0.63 -11.66,1.8 -17.29,2.89 -6.37,1.23 -5.29,2.51 -9.39,-2.58l-6.69 -7.84c-2.21,-2.84 -7.3,-9.43 -9.75,-12.04 -1.21,-1.29 -2.3,-2.51 -3.39,-3.87l-5.09 -5.67c-0.8,-0.79 -1.03,-1.25 -1.74,-2.02l-7.39 -7.14c-1.37,-1.15 -2.46,-2.37 -3.84,-3.42 -4.78,-3.63 -12.06,-9.14 -20.18,-9.14 -7.01,0 -12.67,4.41 -15.73,8.49 -3.61,4.82 -5.87,10.43 -7.63,16.86 -2.33,8.53 -2.3,12.69 -3.36,20.86 -0.17,1.29 -0.48,3.95 -0.47,5.45 0.01,2.35 -0.27,3.58 -0.26,5.93 0.02,4.32 -0.27,7.73 -0.27,12.11 0,4.39 0.28,7.82 0.27,12.11 -0.01,3.96 0.5,7.89 0.53,11.85 0.03,3.67 1.1,7.94 0.81,11.54 -0.24,3 -1.54,7.32 -2.21,10.44 -2.43,11.35 -5.05,25.73 -5.86,37.72 -0.12,1.72 -0.49,4.2 -0.54,5.92 -0.2,7.71 -0.84,16.2 -0.03,23.72 0.23,2.15 0.13,3.66 0.42,5.77l2.74 16.1c1.3,6.65 3.14,13.44 5.26,19.76 0.51,1.51 0.9,3.08 1.47,4.71l5.22 13.62c1.19,3.02 2.65,5.5 3.88,8.5 2.44,5.91 10.54,18.15 14.75,22.65l9.39 9.18 5.56 3.85c3.67,2.22 7.82,3.05 12.14,3.47 5.7,0.55 12.35,0.51 18.32,0.51 4.13,0 8.25,0 12.38,0 4.29,0 7.72,0.27 12.11,0.27l62.42 0.27c66.44,0 132.68,0.54 199.1,0.54 66.52,0 132.65,0.27 199.37,0.27 8.49,0 16.09,0.27 24.49,0.27l124.84 0c16.85,0 33.16,0.27 49.78,0.27 49.87,0 99.73,0 149.6,0 16.87,0 32.89,0.27 49.78,0.27 49.87,0 99.73,0 149.6,0 16.9,0 32.97,0.27 49.78,0.27l149.87 0c8.54,0 16.2,0.27 24.75,0.27 4.62,0 8,0.37 10.77,-1.61 1.25,-0.9 2.22,-1.71 3.05,-3.14 2.38,-4.12 1.75,-9.7 -1.78,-12.66 -2.63,-2.2 -4.13,-2.5 -8.8,-2.5 -7.53,0 -15.07,0 -22.6,0 -7.59,0 -14.57,-0.27 -22.33,-0.27 -97.87,0 -195.14,-0.54 -293,-0.54 -7.67,0 -14.43,-0.27 -22.06,-0.27l-202.87 -0.27c-15.1,0 -29.65,-0.27 -44.93,-0.27l-79.1 0c-4.03,0 -7.07,-0.27 -11.03,-0.27 -60.39,0 -120,-0.27 -180.27,-0.27 -119.93,0 -240.09,-1.08 -360,-1.08 -6.33,0 -16.94,0.55 -22.41,-0.2 -1.62,-0.22 -3.88,-0.07 -5.58,-0.07 -5.06,-0 -11.11,0.84 -15.42,-0.99 -4.96,-2.11 -9.16,-6.34 -12.35,-10.25 -2.59,-3.18 -4.72,-6.59 -6.82,-10.13 -2.16,-3.64 -3.79,-7.56 -5.5,-11.45 -1.11,-2.52 -2.25,-5.5 -3.18,-8.12 -6.13,-17.12 -11.07,-38.74 -11.07,-56.73 0,-6.05 0.27,-12.31 0.85,-17.99 1.12,-10.99 2.89,-21.73 5.05,-32.62 0.52,-2.65 1.08,-5.09 1.69,-7.72 2.33,-9.96 1.27,-5.99 1.03,-16.2 -0.03,-1.43 -0.25,-2.26 -0.26,-4.04l-0.56 -8.32c-0.02,-1.49 0.09,-3.12 0.01,-4.59 -0.4,-7.45 -0.63,-15.76 -0.02,-23.15 0.09,-1.03 -0.04,-2.18 0.01,-3.22 0.07,-1.26 0.28,-1.65 0.27,-3.23 -0.02,-2.88 0.77,-9.09 1.19,-11.99 0.78,-5.32 1.82,-13.48 4.99,-17.88 0.56,-0.77 1.1,-1.1 1.62,-1.88 2.23,1.18 4.13,2.85 6.15,4.34 2.49,1.84 7.32,6.33 9.14,8.61l19.45 22.8c2.11,2.68 4.39,5.02 6.61,7.65 2.2,2.6 7.19,9.14 10.14,11.12 4.86,3.26 10.46,0.76 17.23,-0.59 4.04,-0.81 7.7,-1.45 11.84,-2.15 3.95,-0.66 8.33,-1.38 12.29,-1.71 13.65,-1.13 28.3,-1.24 41.83,0.63 3.21,0.44 16.49,2.57 19.22,2.57 5.57,0 8,-4.34 10.31,-8.25 0.85,-1.43 1.62,-2.55 2.49,-3.97 0.87,-1.42 1.51,-2.38 2.38,-3.81 3.56,-5.85 11.06,-17.11 15.42,-21.98 1.12,-1.25 1.75,-2.28 2.97,-3.49l2.96 -3.23c2.92,-2.92 7.18,-7.2 11.91,-7.2 5.67,0 12.31,16.23 14.27,20.71l2.14 4.89c0.55,1.55 -1.31,3.06 -2.18,4.23 -0.56,0.75 -0.98,1.21 -1.54,1.96l-2.89 4.11c-4.6,6.64 -7.99,12.49 -12.1,19.38 -0.93,1.56 -1.47,2.99 -2.42,4.57 -1.74,2.9 -3.05,6.29 -4.6,9.39l-4.2 9.79c-9.71,24.27 -17.14,54.31 -17.14,80.79 0,6.75 0.15,14.48 0.99,20.8 0.63,4.73 1.22,9.06 2.29,13.32l3.54 12.06 3.39 8.18c3.6,7.37 8.96,14.9 15.11,19.87 2.93,2.36 5.99,4.61 9.53,6.07 12.24,5.05 24.29,4.12 35.02,-3.96l4.27 -3.53c0.84,-0.65 1.4,-1.26 2,-2.04 1.48,-1.95 3.29,-3.47 5.37,-6.74 18.17,-28.66 16.72,-68.17 12.08,-101.65 -2.27,-16.33 -5.88,-31.82 -9.8,-47.51 -1.31,-5.25 -2.58,-9.98 -4.03,-15.08 -0.74,-2.61 -1.36,-4.69 -2.11,-7.3l-7.15 -21.91c1.71,-2.55 10.78,-11.11 13.41,-13.22l4.88 -4c5.08,-3.88 10.43,-7.41 15.82,-10.81 4.56,-2.88 12.84,-6.78 17.93,-8.71 9.1,-3.45 18.26,-6.1 27.99,-7.53 11.99,-1.76 26.13,-2.18 38.06,0.18 8.91,1.76 17.54,4.24 25.58,8.32l11.12 5.83c3.72,2.22 6.74,4.28 10.25,6.7l13.95 11.34c3.36,3.11 10.64,9.68 12.85,12.98 -0.51,0.96 -0.87,1.97 -1.35,2.96 -1.5,3.08 -2.57,6.16 -3.84,9.34 -5.29,13.23 -9.48,26.14 -13,40.28 -1.77,7.12 -3.48,14.2 -4.88,21.49 -3.45,17.9 -5.64,36.48 -4.12,54.83 0.25,3 -0,5.87 0.32,8.82 1.35,12.17 1.69,19.19 5.38,31.22 0.75,2.44 1.44,4.42 2.28,6.86 0.44,1.27 0.83,2.02 1.28,3.29l2.86 6.56c2.17,4.36 5.91,9.88 9.77,13.1 2.53,2.12 5.24,4.16 8.1,5.89 1.03,0.63 1.93,0.97 3,1.57 7.09,3.97 23.1,4.65 31.6,4.19 13.97,-0.76 28.52,-2.8 41.6,-7.09 0.98,-0.32 1.45,-0.48 2.47,-0.76l7.13 -2.56c3.03,-1.28 6.1,-2.48 8.98,-3.93l12.48 -6.89c1.2,-0.72 2.96,-2.12 4.29,-2.43 0.28,3.35 3.97,8.08 6.15,10.8 1.63,2.03 3.93,3.75 6.12,5.18 6.97,4.56 16.8,5.82 24.32,1.49 1.75,-1.01 3.41,-2.38 4.94,-3.68l2.81 -2.84c0.57,-0.64 0.89,-0.86 1.41,-1.54 0.8,-1.05 1.65,-2.16 2.42,-3.24l4.31 -7.26c7.14,-14.4 11.89,-30.4 9,-46.67 -0.23,-1.29 -0.63,-2.15 -0.66,-3.38 2.49,0 4.02,-0.25 6.18,-0.55 0.89,-0.12 2.02,-0.31 2.78,-0.45 1.11,-0.21 1.88,-0.53 2.89,-0.61 0,3.81 -0.27,6.66 -0.27,10.49l0 30.67c0,6.43 0.17,14.56 4.78,18.63 5.17,4.58 13.53,2.28 16.25,-3.8 2.76,-6.16 6.74,-25.37 9.82,-34.58 1.2,-3.59 2.44,-7.3 4.14,-10.66 2.42,-4.8 5.17,-9.43 8.38,-13.68l3.26 -4.27c1.65,-1.77 5.38,-6.58 8,-6.79 0.58,2.17 1.66,2.88 2.31,6.84 1.54,9.39 0.26,20.02 -0.45,29.2 -0.45,5.88 -1.27,11.95 -0.8,17.79 0.49,6.14 0.77,9.14 4.32,14.52 2.05,3.1 6.32,7.8 11.3,7.8 5.66,0 13.48,-2.41 15.49,-8.19 1.84,-5.29 -1.97,-12.8 -7.96,-12.8l-3.77 0.27c0,-1.57 -0.27,-1.88 -0.27,-3.23l2.08 -33.44c0.26,-1.87 -0.3,-9.51 -0.49,-11.47 -0.67,-7.1 -2.66,-13.36 -5.84,-18.11 -3.67,-5.49 -8.96,-8.55 -17.01,-8.55 -4.47,0 -8.39,2.1 -11.78,4.36 -4.02,2.67 -7.5,6.01 -10.43,9.75 -6.49,8.3 -6.09,8.32 -10.97,16.48 -0.32,0.54 -0.14,0.27 -0.45,0.63 0,-2.77 0.38,-5.7 0.54,-8.34 0.23,-3.81 1.61,-4.92 1.61,-8.61 0,-3.95 -2.54,-6.83 -5.71,-8.28 -4.65,-2.11 -10.27,0.13 -12.66,4.43 -0.83,1.49 -0.82,1.48 -2.33,2.24 -6.43,3.26 -22.48,4.17 -29.25,0.71 -1.26,-0.65 -3.55,-1.08 -4.32,-1.6 -0.38,-0.26 -0.66,-0.66 -1.14,-1.01 -2.06,-1.51 -5.68,-1.88 -8.62,-1.88 -12.06,0 -19.59,10.17 -23.75,19.83 -2.25,5.21 -3.8,10.51 -5.46,16.34 -0.82,2.9 -1.55,5.87 -2.07,8.96 -0.5,2.97 -1.27,6.13 -1.27,9.76 -6.81,3.27 -12.55,8.34 -19.12,12.09 -5.65,3.23 -11.61,6.05 -17.63,8.47 -3.9,1.57 -7.9,2.84 -12.01,3.87 -1.43,0.36 -2.79,0.61 -4.25,0.86 -1.14,0.19 -3.65,0.53 -4.85,0.53 5.71,-8.52 9.2,-15.34 12.2,-25.74 5.52,-19.1 5.37,-36.62 3.68,-56.33 -0.45,-5.27 -1.55,-10.55 -2.39,-15.63 -0.43,-2.57 -0.92,-4.87 -1.54,-7.34 -2.16,-8.51 -3.09,-12.73 -5.92,-21.25 -5.35,-16.08 -12.91,-31.38 -21.74,-45.79 -3.87,-6.32 -8.19,-12.62 -12.77,-18.44 -1.51,-1.92 -0.31,-2.62 1.41,-6.07 2.41,-4.82 4.69,-10.04 7.98,-14.35 0.31,-0.41 0.54,-0.76 0.92,-1.24 3.8,-4.85 8.28,-11.85 12.34,-17.26 5.91,-7.87 8.7,-10.42 16.39,-15.09 8.23,-5 21.84,-7.3 30.09,-1.4 11.39,8.15 1.01,29.68 -5.86,36.39 -0.88,0.86 -1.19,1.48 -2.01,2.3l-3.25 3.21c-1.07,1.27 -2.22,2.14 -3.23,3.5 -3.14,4.24 -9.63,13.4 -2.89,17.84 7.59,5 16.91,-2.47 22.42,-7.46 0.04,-0.04 0.1,-0.09 0.14,-0.13l2.81 -2.84c2.35,-2.44 4.44,-5.36 6.02,-8.51 0.41,-0.81 0.57,-0.97 0.99,-1.7 5.28,-9.44 9.6,-23.03 9.6,-33.72 0,-9.52 -1.25,-14.23 -7.87,-20.92 -8.44,-8.54 -25.51,-13.3 -37.46,-11.49 -11.47,1.74 -19.54,5.68 -27.9,12.46 -2.59,2.1 -5.94,5.07 -8.09,7.51l-7.24 8.37c-0.57,0.71 -0.78,1.08 -1.51,1.72 -2.26,1.95 -3.83,4.41 -5.36,7.01 -3.03,5.13 -6.61,9.89 -9.88,14.87 -0.47,0.71 -0.66,1.12 -1.12,1.83l-3.61 6.08z"/>
   <path class="fil2" d="M1220.37 204.72c0,-2.13 0.18,-3.66 0.27,-5.38 0.1,-1.83 -0.1,-3.83 -0,-5.65l0.53 -8.08c0.08,-0.95 -0.04,-2 0.01,-2.95 0.32,-5.96 1.62,-16.75 1.62,-21.25l8.82 -2.21c3.05,-0.73 6.28,-1.17 10.02,-1.28 4.63,-0.15 4.71,-0.18 9.66,0.82 9.04,1.83 7.57,6.34 4.15,13.26 -2.97,5.99 -9.44,12.68 -14.42,17.06l-3.82 3.45c-2.7,2.12 -14.41,11.57 -16.84,12.22zm-66.46 0.27c0,6.18 1.71,11.78 5.15,16.38 2.57,3.45 8.05,7.84 13.96,7.84 6.95,0 15.22,-0.09 18.2,-7.63 0.62,-1.57 0.62,-2.89 0.39,-4.49 -0.28,-1.94 -0.48,-2.88 -1.57,-4.09 -5.72,-6.31 -8.91,-3.43 -15.41,-2.89 -1.32,-1.98 -1.68,-3.84 -1.31,-6.68 0.92,-7.08 8.58,-17.22 13.88,-21.65 0.88,-0.73 1.32,-1.37 2.23,-2.07l5.06 -3.82c2.43,-1.65 5.56,-3.97 8.12,-5.33l-1.62 27.43c-0.04,1.42 0.06,2.9 0.02,4.32 -0.04,1.43 -0.29,2.03 -0.28,3.75 0.01,1.43 0.03,2.89 0.01,4.32 -0.02,1.55 -0.29,2.03 -0.29,3.75l-0.26 20.99c0,3.06 -0.28,5.2 -0.27,8.07 0.01,2.78 0.01,5.57 0.01,8.35 -0,1.66 -0.29,2.08 -0.29,3.75l0.54 20.73c0.04,5.53 1.36,11.52 6.64,14.35 7.44,3.99 18.49,-3.93 14.27,-12.92 -0.45,-0.96 -1.53,-2.37 -1.53,-3.31l0 -35.79c0,-4.19 0.27,-7.4 0.27,-11.57l5.21 -2.33c1,-0.51 1.4,-0.85 2.42,-1.35 6.27,-3.1 14.48,-9.34 20.05,-13.85 1.44,-1.16 2.66,-2.25 4.11,-3.42 3.39,-2.71 11.41,-11.33 14.57,-15.57 6.62,-8.87 13.78,-20.55 10.36,-33.12 -0.83,-3.04 -1.91,-4.65 -3.5,-7 -4.9,-7.27 -17.11,-11.35 -26.86,-11.35 -8.06,0 -12.03,0.6 -19.22,2.04 -8.34,1.66 -14.82,4.15 -22.19,7.14 -3.46,1.4 -9.94,4.8 -13,6.64 -6.8,4.09 -8,4.95 -14.44,10.04 -1.03,0.82 -1.55,1.41 -2.61,2.23 -4.79,3.7 -10.01,10.76 -13.46,15.87l-3.49 6.46c-1.72,4.14 -3.88,10.14 -3.88,15.76z"/>
   <path class="fil2" d="M1372.39 186.96c-1.56,0.04 -11.49,2.3 -12.11,2.29 -1.16,-0.02 -2.29,-0.68 -4.57,-0.68 -4.27,0 -10.68,3.8 -13.38,7.07 -0.9,1.08 -1.68,3.68 -1.68,5.58 0,4.33 3.93,9.15 8.88,9.15 7.86,0 17.82,-3.23 21.26,-3.23l-0.26 4.05c-0.01,1.6 -0.29,2.41 -0.28,4.29l-0.27 35.25c-0,3.2 0.28,5.54 0.26,8.88l0.5 8.64c0.35,3.11 -0.03,5.72 0.42,8.73l1.5 16.53c0.61,5.39 1.34,10.54 2.31,15.72 0.47,2.52 0.91,4.97 1.51,7.37 0.55,2.2 1.07,5.2 1.87,7.28 3.02,7.94 12.01,10.94 17.8,4.95 3.03,-3.13 4.16,-9.63 1.01,-13.81 -0.72,-0.95 -0.82,-0.57 -1.41,-1.28 -1.58,-1.9 -4.15,-23.63 -4.48,-26.74l-0.87 -11.78c-0.08,-1.02 -0.25,-1.12 -0.26,-2.43l-0.27 -5.11c-0.08,-6.82 -0.53,-13.14 -0.53,-20.19l0 -17.76c0,-4.73 0.29,-8.66 0.27,-13.19l0.54 -9.68c0.06,-1.09 -0,-2.38 -0,-3.5l29.59 -1.62c13.67,0.15 12.71,-19.1 0.81,-19.1l-28.79 1.08 5.71 -38.41c0.76,-4.06 2.9,-2.71 2.9,-8.67 0,-9.77 -16.47,-15.52 -20.66,-0.48 -1.37,4.93 -2.53,10.69 -3.27,16.1l-2.36 17.01c-0.38,3.05 -0.65,5.73 -0.91,8.78 -0.23,2.8 -0.78,5.86 -0.78,8.9z"/>
   <path class="fil2" d="M944.32 267.68c-1.83,0 -2.75,-2.37 -3.2,-3.79 -1.67,-5.22 -0.65,-10.66 1.01,-15.61 2.44,-7.27 5.91,-13.42 10.76,-19.38 2.37,-2.91 6.47,-7.09 9.65,-9.45 1.18,-0.87 2.12,-1.56 3.3,-2.35 4.53,-3.01 9.39,-5.11 16.95,-5.11 -0.1,1.18 -0.6,3.5 -0.91,4.74 -2.75,10.81 -6.64,19.37 -12.81,28.63 -0.78,1.18 -1.4,2.17 -2.34,3.31l-3.93 4.95c-3.42,4.06 -13.86,14.07 -18.49,14.07zm-23.14 -10.22c0,5.3 0.03,8.71 1.85,13.76 2.68,7.43 10.22,15.84 19.68,15.84 6.87,0 10.95,-1.48 16.8,-4.99 4.52,-2.72 12.01,-9.04 15.41,-13.11 0.5,-0.6 0.5,-0.74 1.08,-1.34 2.75,-2.83 8.37,-10.35 10.4,-13.82 0.38,-0.66 0.47,-0.97 1.24,-1.18 0.11,1.27 1.21,4.04 1.65,5.35 0.61,1.84 1.19,3.49 1.93,5.34 1.41,3.53 1.56,4.17 3.24,7.52l2.42 4.84c2.28,4.28 7.95,12.2 13.09,12.2 3.17,0 5.58,-0.44 8.01,-3.02 3.94,-4.17 3.79,-10.15 -0.96,-14.26 -1.79,-1.55 -3.01,-4.03 -4.1,-6.12 -9,-17.31 -9.95,-31.91 -9.95,-51.93 0,-6.12 1.43,-8.77 -1.73,-13.34 -1.76,-2.55 -4.14,-3.18 -6.67,-3.82 -1.56,-0.4 -2.76,-0.95 -4.04,-1.34 -10.2,-3.16 -22.23,-0.53 -30.9,4.5 -8.92,5.18 -12.57,8.17 -19.56,15.68l-3.41 4.12c-8.15,10.82 -15.49,25.33 -15.49,39.13z"/>
   <path class="fil2" d="M1295.44 233.78l-8.07 -0.27c0,-11.05 0.2,-18.46 8.67,-26.84 3.2,-3.17 9.94,-8.49 13.9,-4.06 5,5.59 0.77,19.44 -2,24.03 -3.21,5.32 -6.52,7.15 -12.5,7.15zm-27.44 -7.53c0,11.73 0.27,14.27 3.12,25.67 0.74,2.98 1.85,5.96 2.95,8.62 5.55,13.28 18.62,24.64 33.48,24.64 7.81,0 11.62,-1.08 18.2,-4.67 4.3,-2.34 7.74,-5.31 11.19,-8.72 2.95,-2.92 9.35,-11.33 9.35,-14.87l0 -1.35c0,-6.97 -8.94,-11.49 -14.69,-7.96 -1.3,0.79 -1.96,1.72 -2.8,2.85 -3.52,4.71 -7.17,11.37 -13.83,14.15 -0.66,0.27 -3.71,1.45 -4.2,1.45 -5.82,0 -11.05,-2.14 -14.06,-5.58 -2.12,-2.42 -3.22,-4.4 -4.77,-7.33 3.38,0 5.11,0.32 9.3,-0.38 7.14,-1.2 10.38,-2.91 15.68,-7.19 0.65,-0.52 0.82,-0.6 1.45,-1.24 6.14,-6.14 10.52,-15.21 12,-23.78 1.44,-8.35 2.25,-17.91 -2.18,-25.47 -1.9,-3.25 -2.1,-2.97 -3.98,-5.44 -0.72,-0.95 -0.67,-0.69 -1.54,-1.42 -5,-4.16 -8.68,-6.65 -16.49,-6.65 -13.02,0 -26.93,11.64 -33.1,23.67 -0.32,0.63 -0.51,1.23 -0.8,1.89 -2.46,5.47 -4.3,12.86 -4.3,19.11z"/>
   <path class="fil2" d="M783.43 233.78l-8.07 -0.27c0,-10.95 0.28,-18.42 8.54,-26.71 2.8,-2.81 10.24,-8.74 14.07,-4.24 2.56,3.01 2.15,5.24 2.15,9.15 0,6.53 -3.36,16.7 -8.88,20.17 -2.24,1.41 -4.2,1.89 -7.8,1.89zm-27.44 -7c0,9.91 0.42,15.54 3.07,24.91 2.62,9.24 5.58,15.9 12.33,22.65 2.39,2.39 5.08,4.54 8.01,6.25 9.92,5.76 21.21,6.02 31.74,1.35 2.71,-1.2 7.48,-4.35 9.62,-6.25 2.21,-1.98 4.02,-3.49 5.95,-5.89 2.17,-2.7 7.57,-9.14 7.57,-12.61 0,-3.66 -0.04,-4.99 -3.02,-8.01 -3.02,-3.05 -8.28,-3.63 -11.66,-1.57 -1.26,0.77 -1.98,1.76 -2.81,2.84 -3.56,4.64 -4.29,7.56 -10.29,12.04 -0.98,0.73 -2.36,1.6 -3.51,2.14 -4,1.87 -6.77,1.79 -11.05,0.46 -3.44,-1.07 -4.41,-2.38 -6.2,-3.75l-2.85 -3.07c-1.18,-1.64 -1.98,-3.28 -2.96,-5.12 1.55,0 2.52,0.36 3.72,0.24 10.84,-1.08 13.6,-1.84 21.73,-8.16 0.76,-0.59 1.4,-1.27 2.07,-1.97 6.92,-7.19 10.04,-16.96 11.62,-26.86 1.32,-8.3 0.42,-16.93 -4.43,-23.8 -1.45,-2.05 -4.35,-5.16 -6.4,-6.52 -4.52,-2.99 -7.58,-4.52 -14.05,-4.52 -11.96,0 -25.14,10.3 -31.3,20.63 -2.89,4.85 -4.72,9.41 -5.86,15.13 -0.52,2.6 -1.05,6.35 -1.05,9.44z"/>
   <path class="fil2" d="M1044.41 250.46c0,-12.39 3.37,-23.39 7.57,-33.86 0.83,-2.08 1.63,-3.85 2.99,-5.62 3.8,-4.92 4.91,-1.44 8.23,-0.03 8.33,3.54 8.15,19.08 6.43,27.07 -1.87,8.72 -4.71,15.37 -9.26,22.75 -0.98,1.59 -3.57,4.81 -4.86,5.91 -2.42,2.07 -6.47,-0.64 -8.51,-4.29 -1.65,-2.96 -2.6,-7.42 -2.6,-11.93zm-19.37 0.27c0,13.58 4.97,25.74 15.42,31.93 14.43,8.56 26.3,2.36 35.05,-9.72 7.55,-10.42 14.37,-30.08 14.37,-42.13 0,-4.93 0.15,-5.57 -0.52,-10.51 -0.23,-1.71 -0.82,-3.44 -0.82,-5.09 6.45,0 13.65,-1.92 18.3,-3.77 2.8,-1.11 8.36,-3.74 10.05,-6.63 2.52,-4.32 1.47,-11.36 -3.97,-13.71 -4.42,-1.91 -7.73,-0.43 -11.55,1.7 -0.71,0.4 -0.49,0.35 -1.23,0.66 -0.36,0.15 -1.03,0.35 -1.41,0.47 -6.82,2.15 -13.06,2.22 -20.07,1.3 -1.01,-0.13 -2.28,-0.34 -3.47,-0.57 -1.69,-0.33 -1.66,-0.38 -2.98,-1.06 -4.87,-2.5 -1.21,0.44 -5.52,-2.55 -5.75,-3.99 -16.05,-1.46 -21.64,2.75 -1.66,1.26 -4.63,4.52 -5.76,6.08 -5.72,7.92 -9.25,20.44 -11.56,29.87 -1.52,6.19 -2.69,13.31 -2.69,20.98z"/>
   <path class="fil2" d="M842.35 203.92c0,4.65 1.35,8.9 5.34,11.08 1.24,0.68 2.19,1.03 4.08,1.03 1.39,2.63 6.86,8.75 8.07,11.03 -1.36,2.04 -3.49,4.17 -5.03,6 -0.5,0.59 -0.5,0.74 -1.09,1.34 -0.82,0.84 -1.36,1.56 -2.15,2.42 -0.51,0.55 -0.5,0.66 -0.96,1.2l-7.27 8.61c-1.93,2.39 -4.18,5.1 -5.62,7.84 -0.5,0.96 -0.78,2.46 -0.62,3.67 0.35,2.6 1.33,4.93 2.75,6.41 4.37,4.56 11.68,3.59 15.53,-1.57 1.87,-2.51 3.45,-4.85 5.47,-7.17l10.08 -11.72c0.69,-0.78 0.66,-1.08 1.55,-1.68l8.14 9.08c1.52,1.51 2.63,2.9 4.17,4.44 3.27,3.27 15.17,15.47 17.51,17.19 4.35,3.19 9.45,3.93 13.57,-0.23 1.79,-1.8 2.88,-3.87 2.88,-6.54 0,-5.17 -4.38,-8.01 -7.06,-10.7 -0.76,-0.76 -1.37,-1.44 -2.15,-2.15l-6.73 -6.72c-0.86,-0.85 -1.15,-1.44 -2.01,-2.29l-15.14 -16.34c0.23,-0.85 2.6,-3.52 3.43,-4.38l11.71 -12.51c4.14,-4.11 4.71,-10.47 0.95,-14.27 -4.66,-4.71 -10.99,-3.72 -15.34,1.22l-13.12 14.06 -4.19 -5.23c-1.58,-2.11 -6.64,-8.7 -8.76,-10.35 -8.25,-6.42 -18,-0.5 -18,7.23z"/>
   <path class="fil2" d="M939.48 174.86c0,4.99 5.55,9.42 8.88,9.42 8.46,0 9.93,-7.47 12.04,-10.02 0.82,-1 1.54,-2.06 2.41,-2.97 0.99,-1.03 1.93,-1.79 2.76,-2.89l5.65 -5.38c0.89,0.24 3.38,2.25 4.68,3.12 4.45,2.96 11.26,6.83 16.84,6.83 3.92,0 4.9,0.04 8.73,-1.5 2.23,-0.89 3.38,-1.65 5.21,-2.86 3.18,-2.11 5.65,-4.9 8.33,-7.55 1.18,-1.16 2.69,-2.97 3.39,-4.41 2.69,-5.54 -1.33,-13.55 -9.24,-13.55 -3.54,0 -6.4,2.77 -8.27,4.64 -6.66,6.67 -6.62,7.35 -12.77,3.22 -1.69,-1.13 -3.36,-2.14 -4.98,-3.36 -3.83,-2.88 -7.04,-5.04 -12.72,-5.04 -9.63,0 -30.94,22.53 -30.94,32.29z"/>
   <path class="fil2" d="M352.66 158.71c0,11.29 23.67,28.85 45.52,15.66 6.53,-3.94 14.47,-10.84 11.56,-19.47 -0.55,-1.63 -0.95,-2.21 -2.13,-3.25 -2.27,-2.01 -7.36,-3.1 -10.33,-3.39l-7.65 -0.42c-1.8,-0.27 -8.28,-0.16 -10.61,-0.16 -5.41,0 -13.04,0.25 -17.28,1.29 -5.54,1.36 -9.09,3.26 -9.09,9.75z"/>
   <path class="fil2" d="M130.96 190.19c0,7.82 10.64,10.33 16.95,10.51l6.16 -0.58c11.4,-2.18 15.96,-12.07 5.33,-17.38 -7.07,-3.53 -18.29,-3.33 -24.25,1.14 -0.44,0.33 -0.53,0.37 -0.92,0.7 -0.03,0.02 -0.4,0.37 -0.42,0.39 -1.3,1.31 -2.85,3.04 -2.85,5.22z"/>
   <path class="fil2" d="M188 171.36c0,13.36 9.83,18.74 14.71,9.6 2.24,-4.19 2.72,-9.27 1.69,-13.89 -3.34,-14.97 -16.4,-10.13 -16.4,4.29z"/>
   <path class="fil2" d="M108.36 172.44c0,-16.91 -13.12,-19.3 -16.25,-5.76 -1.12,4.84 -0.48,10.17 1.36,13.93 1.21,2.47 3.99,5.25 7,4.92 1.34,-0.15 2.12,-0.7 2.99,-1.32 2.9,-2.06 4.91,-6.88 4.91,-11.77z"/>
   <path class="fil2" d="M319.3 121.85c0,3.61 0.56,6.52 1.97,9.33 4.44,8.86 12.68,4.97 14.42,-4.25 2.43,-12.95 -5.76,-22.18 -11.61,-17 -3.12,2.76 -4.77,7.51 -4.77,11.91z"/>
   <path class="fil2" d="M426.92 121.58c0,3.78 0.38,6.49 2.06,9.78 4.05,7.95 12.07,5.79 14.29,-4.46 1.35,-6.25 -0.54,-15.43 -5.5,-17.78 -6.14,-2.9 -10.85,5.66 -10.85,12.46z"/>
  </g>
 </g>
</svg>
